<svg width="235" height="54" viewBox="0 0 235 54" fill="none" xmlns="http://www.w3.org/2000/svg">
<path d="M82.0825 38C85.9766 38 88.3547 36.5768 90.5247 34.3235L88.1763 31.9515C86.3927 33.6119 84.7578 34.6199 82.2014 34.6199C78.2181 34.6199 75.3347 31.3288 75.3347 27.2668V27.2075C75.3347 23.1456 78.2478 19.8841 82.2014 19.8841C84.5795 19.8841 86.363 20.9218 88.0277 22.4636L90.376 19.7655C88.3844 17.8679 86.0658 16.5337 82.2311 16.5337C75.9292 16.5337 71.5 21.3666 71.5 27.2668V27.3261C71.5 33.2857 76.0184 38 82.0825 38Z" fill="#F2F2F2"/>
<path d="M94.1596 37.6442H97.7564V16H94.1596V37.6442Z" fill="#F2F2F2"/>
<path d="M107.867 37.9704C110.305 37.9704 111.761 36.6954 112.772 35.2129V37.6442H116.399V21.9892H112.772V30.8248C112.772 33.2561 111.315 34.6792 109.235 34.6792C107.094 34.6792 105.876 33.3154 105.876 30.8841V21.9892H102.279V31.9515C102.279 35.5984 104.33 37.9704 107.867 37.9704Z" fill="#F2F2F2"/>
<path d="M129.838 37.9704C133.554 37.9704 137.121 35.035 137.121 29.8464V29.7871C137.121 24.5687 133.524 21.6631 129.838 21.6631C127.282 21.6631 125.647 22.9677 124.488 24.5984V16H120.891V37.6442H124.488V35.2129C125.587 36.6658 127.222 37.9704 129.838 37.9704ZM128.976 34.8571C126.539 34.8571 124.398 32.841 124.398 29.8464V29.7871C124.398 26.7925 126.539 24.7763 128.976 24.7763C131.414 24.7763 133.465 26.7628 133.465 29.7871V29.8464C133.465 32.9299 131.443 34.8571 128.976 34.8571Z" fill="#F2F2F2"/>
<path d="M148.378 37.6442H152.124L154.264 32.6334H164.103L166.214 37.6442H170.078L160.923 16.7412H157.534L148.378 37.6442ZM155.602 29.4016L159.169 21.0997L162.766 29.4016H155.602Z" fill="#F2F2F2"/>
<path d="M173.231 37.6442H176.827V31.6846C176.827 27.5337 179.027 25.4879 182.178 25.4879H182.386V21.6927C179.622 21.5741 177.808 23.1752 176.827 25.5175V21.9892H173.231V37.6442Z" fill="#F2F2F2"/>
<path d="M192.181 38C195.065 38 197.116 36.8437 198.602 35.0647L196.491 33.1968C195.243 34.4124 193.994 35.0647 192.241 35.0647C189.922 35.0647 188.109 33.6415 187.722 31.0916H199.256C199.286 30.7358 199.315 30.4097 199.315 30.0836C199.315 25.5768 196.789 21.6631 191.795 21.6631C187.306 21.6631 184.125 25.3396 184.125 29.8167V29.876C184.125 34.7089 187.633 38 192.181 38ZM187.692 28.7197C188.019 26.2884 189.565 24.5984 191.765 24.5984C194.143 24.5984 195.51 26.407 195.748 28.7197H187.692Z" fill="#F2F2F2"/>
<path d="M202.928 37.6442H206.524V28.8086C206.524 26.3774 207.981 24.9245 210.062 24.9245C212.202 24.9245 213.421 26.3181 213.421 28.7493V37.6442H217.018V27.6523C217.018 24.035 214.967 21.6631 211.429 21.6631C208.992 21.6631 207.535 22.938 206.524 24.3908V21.9892H202.928V37.6442Z" fill="#F2F2F2"/>
<path d="M225.879 37.9704C228.287 37.9704 229.922 36.9623 230.992 35.6873V37.6442H234.5V28.3639C234.5 26.3181 233.965 24.6577 232.806 23.531C231.706 22.4043 229.952 21.7817 227.604 21.7817C225.107 21.7817 223.412 22.2857 221.688 23.0566L222.639 25.8733C224.066 25.2803 225.374 24.8949 227.128 24.8949C229.655 24.8949 231.022 26.0809 231.022 28.3046V28.69C229.803 28.3046 228.555 28.0377 226.801 28.0377C222.966 28.0377 220.321 29.6981 220.321 33.0782V33.1375C220.321 36.2803 222.937 37.9704 225.879 37.9704ZM226.89 35.3612C225.166 35.3612 223.828 34.5013 223.828 32.9892V32.9299C223.828 31.2992 225.196 30.3208 227.514 30.3208C228.941 30.3208 230.16 30.5876 231.082 30.9434V32.0108C231.082 33.9973 229.268 35.3612 226.89 35.3612Z" fill="#F2F2F2"/>
<path fill-rule="evenodd" clip-rule="evenodd" d="M0.500549 26.8772L26.5696 0.808105L52.808 27.0465L26.7389 53.1156L0.500549 26.8772ZM8.11554 26.8772L26.7389 45.5006L45.193 27.0465L26.5696 8.4231L8.11554 26.8772Z" fill="#F2F2F2"/>
<path d="M33.0167 20.553C31.6605 19.1969 29.9127 18.3009 28.0199 17.9917C26.1272 17.6824 24.1851 17.9755 22.4679 18.8295C20.7506 19.6835 19.345 21.0553 18.4494 22.7512C17.5538 24.4471 17.2135 26.3815 17.4766 28.2812C17.7396 30.181 18.5927 31.9501 19.9154 33.3389C21.2381 34.7276 22.9636 35.6659 24.8482 36.0212C26.7329 36.3764 28.6815 36.1308 30.4191 35.3189C32.1566 34.507 33.5952 33.1699 34.5319 31.4963L29.8593 28.8812C29.4705 29.5758 28.8734 30.1308 28.1523 30.4678C27.4311 30.8048 26.6224 30.9067 25.8401 30.7593C25.0579 30.6118 24.3418 30.2224 23.7928 29.646C23.2438 29.0696 22.8897 28.3353 22.7806 27.5468C22.6714 26.7583 22.8126 25.9555 23.1843 25.2516C23.556 24.5477 24.1394 23.9784 24.8522 23.6239C25.5649 23.2695 26.371 23.1479 27.1565 23.2762C27.9421 23.4046 28.6676 23.7764 29.2304 24.3393L33.0167 20.553Z" fill="#F2F2F2"/>
</svg>
